<svg aria-hidden="true" style="position: absolute; width: 0; height: 0; overflow: hidden;"
     xmlns="http://www.w3.org/2000/svg">
  <defs>
    <symbol id="icon-plus" viewBox="0 0 19 19">
      <path xmlns="http://www.w3.org/2000/svg"
            d="M10.3537 18.9661C11.4859 18.8584 12.7517 18.4983 13.7316 18.0045C14.745 17.4921 15.8066 16.6827 16.5342 15.8659C17.9595 14.262 18.7687 12.4093 18.9655 10.3004C19.1177 8.64451 18.7613 6.77697 18.0004 5.26958C17.4881 4.25598 16.6789 3.19412 15.8623 2.46641C14.2587 1.04069 12.4065 0.231302 10.2981 0.0345231C8.64254 -0.117702 6.77543 0.238727 5.26837 0.999851C4.25501 1.51222 3.19339 2.32161 2.46585 3.13843C1.04046 4.74236 0.23125 6.59505 0.0345165 8.70392C-0.117675 10.3598 0.238673 12.2274 0.999623 13.7348C1.51187 14.7484 2.32108 15.8102 3.13771 16.5379C4.74127 17.9637 6.59354 18.773 8.70193 18.9698C9.16592 19.0107 9.88975 19.0107 10.3537 18.9661ZM8.38641 12.8437L8.38641 10.616L6.15924 10.616L3.93207 10.616L3.93207 9.50217L3.93207 8.38833L6.15924 8.38833L8.38641 8.38833L8.38641 6.16065L8.38641 3.93297L9.5 3.93297L10.6136 3.93297L10.6136 6.16065L10.6136 8.38833L12.8408 8.38833L15.0679 8.38833L15.0679 9.50217L15.0679 10.616L12.8408 10.616L10.6136 10.616L10.6136 12.8437L10.6136 15.0714L9.5 15.0714L8.38641 15.0714L8.38641 12.8437Z"
            fill="#539985"/>
    </symbol>
    <symbol id="icon-minus" viewBox="0 0 19 19">
      <path xmlns="http://www.w3.org/2000/svg"
            d="M10.3537 18.9661C11.4859 18.8584 12.7517 18.4983 13.7316 18.0045C14.745 17.4921 15.8066 16.6827 16.5342 15.8659C17.9595 14.262 18.7687 12.4093 18.9655 10.3004C19.1177 8.64451 18.7613 6.77697 18.0004 5.26958C17.4881 4.25598 16.6789 3.19412 15.8623 2.46641C14.2587 1.04069 12.4065 0.231302 10.2981 0.0345231C8.64254 -0.117702 6.77543 0.238727 5.26837 0.999851C4.25501 1.51222 3.19339 2.32161 2.46585 3.13843C1.04046 4.74236 0.23125 6.59504 0.0345165 8.70392C-0.117673 10.3598 0.238675 12.2274 0.999625 13.7348C1.51187 14.7484 2.32108 15.8102 3.13771 16.5379C4.74127 17.9636 6.59354 18.773 8.70193 18.9698C9.16592 19.0107 9.88975 19.0107 10.3537 18.9661ZM3.93207 9.50217L3.93207 8.38833L9.5 8.38833L15.0679 8.38833L15.0679 9.50217L15.0679 10.616L9.5 10.616L3.93207 10.616L3.93207 9.50217Z"
            fill="#C75D30"/>
    </symbol>
    <symbol id="icon-drop-down" viewBox="0 0 16 16">
      <path d="M2.5636 4.0248C2.35225 4.0969 2.16204 4.26996 2.05636 4.48628C2.00705 4.58964 2 4.64011 2 4.85884C2 5.08958 2.0047 5.12323 2.06575 5.24341C2.12211 5.35157 2.63405 5.88757 4.80157 8.10849C7.0184 10.3799 7.49511 10.8558 7.61252 10.9207C7.74638 10.9952 7.76517 11 8 11C8.23483 11 8.25362 10.9952 8.38748 10.9207C8.50724 10.8558 8.97926 10.3823 11.2078 8.09647C13.3331 5.91882 13.8967 5.32754 13.9436 5.2314C13.993 5.12804 14 5.07757 14 4.85884C14 4.6281 13.993 4.59445 13.9319 4.46946C13.8497 4.30361 13.7135 4.1642 13.5421 4.07287C13.4247 4.01278 13.3894 4.00557 13.1781 4.00557C12.7671 4.00557 13.002 3.79646 10.3436 6.51491L8 8.90888L5.65871 6.51491C3.02622 3.8277 3.23523 4.01278 2.85714 4.00076C2.73973 3.99836 2.61996 4.00797 2.5636 4.0248Z" fill="#4A5056"/>
    </symbol>
    <symbol id="icon-info" viewBox="0 0 14 14">
      <path d="M6.10853 0.0369297C4.48958 0.250296 3.05385 0.977933 1.91894 2.16786C0.937179 3.1964 0.289051 4.50396 0.0648037 5.90453C-0.00629906 6.3422 -0.0227075 7.37895 0.0347216 7.84671C0.299989 10.0351 1.57163 11.9527 3.49687 13.0797C4.19696 13.4873 4.99823 13.7745 5.85967 13.9249C6.33551 14.007 7.34462 14.0262 7.84781 13.9605C10.8615 13.583 13.2735 11.3481 13.8751 8.38013C14.0037 7.75097 14.0365 6.78261 13.9572 6.12337C13.5634 2.95842 11.0365 0.430839 7.87242 0.0369298C7.45675 -0.0123094 6.50233 -0.0123095 6.10853 0.0369297ZM8.27716 2.74505C8.43851 2.83259 8.55337 2.95021 8.64361 3.12255C8.69557 3.21829 8.70651 3.2812 8.70651 3.49731C8.70651 3.73529 8.69831 3.77085 8.62447 3.90489C8.54243 4.05261 8.40023 4.18665 8.22794 4.27965C8.08026 4.35898 7.65365 4.35351 7.49777 4.26871C7.20789 4.11552 7.05201 3.88027 7.03013 3.56843C7.01646 3.33318 7.05201 3.1882 7.1696 3.01313C7.25985 2.87635 7.46222 2.72317 7.60989 2.67666C7.65638 2.66299 7.79312 2.65478 7.91345 2.65752C8.09394 2.66572 8.15684 2.6794 8.27716 2.74505ZM7.95994 4.84043C8.29357 4.91155 8.5397 5.08935 8.66002 5.35196C8.72019 5.48326 8.72566 5.52703 8.71198 5.72398C8.69831 5.92915 8.65182 6.07686 8.0283 7.77833L7.36103 9.6111L8.03924 9.6193L8.72019 9.62477L8.72019 9.7424C8.71745 10.1555 8.41937 10.6588 8.02557 10.9077C7.77944 11.0609 7.61536 11.1101 6.89886 11.2387C6.13861 11.3755 5.96633 11.3837 5.78036 11.2934C5.59987 11.2059 5.42212 11.0226 5.33734 10.8366C5.27444 10.7026 5.26897 10.6615 5.28265 10.4618C5.29632 10.2567 5.34828 10.1035 5.96633 8.40749L6.63633 6.57472L5.95539 6.56651L5.27444 6.56104L5.27444 6.44068C5.27444 6.26834 5.36742 5.9948 5.48775 5.80605C5.62449 5.59268 5.91437 5.33281 6.14408 5.21245C6.48319 5.03464 7.20789 4.85684 7.7685 4.81307C7.79312 4.81307 7.88063 4.82401 7.95994 4.84043Z"/>
    </symbol>
    <symbol id="icon-search" viewBox="0 0 14 14">
      <g clip-path="url(#clip0_4201_5477)">
        <path d="M5.0544 0.0251255C3.25538 0.227746 1.71649 1.20799 0.796445 2.73312C0.418569 3.36014 0.185819 4.00086 0.0489073 4.77301C-0.0222867 5.18646 -0.014072 6.14206 0.0625985 6.56647C0.391186 8.36541 1.45362 9.81661 3.03906 10.638C3.88791 11.0761 4.65735 11.2623 5.62669 11.2596C6.80686 11.2596 7.7762 10.9666 8.76196 10.3149L9.08781 10.0986L10.9936 11.9961C12.2779 13.2776 12.9323 13.9128 13.0062 13.9484C13.1541 14.0169 13.4635 14.0169 13.5949 13.9484C13.9235 13.7759 14.0741 13.42 13.9646 13.0804C13.9181 12.9408 13.8167 12.8313 12.0013 11.0132L10.0873 9.09375L10.2981 8.7816C11.314 7.28112 11.5385 5.40277 10.906 3.66407C10.7006 3.09455 10.3063 2.43192 9.87916 1.93633C9.16722 1.11489 8.15955 0.476913 7.12724 0.200365C6.49744 0.0306015 5.64312 -0.0433273 5.0544 0.0251255ZM6.03194 1.42156C7.07247 1.53382 7.88573 1.9199 8.6141 2.64824C9.35616 3.39026 9.75046 4.2336 9.84904 5.28504C9.93666 6.22421 9.68475 7.18255 9.12889 8.01767C8.89887 8.36541 8.3567 8.90756 8.00895 9.13756C6.60697 10.0713 4.87915 10.1205 3.45253 9.26625C2.42295 8.65291 1.69732 7.61791 1.4591 6.42135C1.37147 5.98325 1.37147 5.28777 1.4591 4.84968C1.70554 3.61479 2.46403 2.56335 3.55932 1.9418C4.29043 1.52561 5.21321 1.3312 6.03194 1.42156Z" fill="#AEB7B5"/>
      </g>
      <defs>
        <clipPath id="clip0_4201_5477">
          <rect width="14" height="14" fill="white"/>
        </clipPath>
      </defs>
    </symbol>
    <symbol id="icon-stars" viewBox="0 0 134 23">
      <path d="M8.21933 4.04901C8.15946 4.07489 8.08087 4.13034 8.04719 4.1673C8.01351 4.20796 7.46715 5.27625 6.83471 6.54785C6.20227 7.81945 5.67462 8.86926 5.65965 8.88404C5.64842 8.89513 4.4584 9.07626 3.01764 9.28327C1.15027 9.54941 0.364402 9.6751 0.285816 9.72315C0.0350864 9.86731 -0.0771804 10.2407 0.0575397 10.4957C0.0874775 10.5512 0.865861 11.3237 1.79019 12.2109C2.71078 13.0981 3.564 13.9224 3.68376 14.0407L3.89706 14.2588L3.448 16.8463C2.97648 19.5669 2.98022 19.5411 3.12991 19.7666C3.22346 19.907 3.47045 20.0142 3.65756 19.992C3.76983 19.981 4.46214 19.6409 6.13866 18.7685C7.4185 18.1068 8.48129 17.5634 8.50374 17.5634C8.52245 17.5634 9.5815 18.1031 10.8539 18.7648C12.1262 19.4265 13.2189 19.9773 13.2826 19.9883C13.4697 20.0253 13.653 19.9736 13.7915 19.8442C14.0422 19.6113 14.0497 19.7185 13.552 16.8426L13.1029 14.2588L13.2788 14.0776C13.3799 13.9778 14.2293 13.1535 15.1761 12.2479C16.1192 11.3385 16.9125 10.5512 16.9425 10.4957C17.0772 10.2407 16.9649 9.86731 16.7142 9.71945C16.6319 9.6751 15.8759 9.55311 13.9824 9.27957C12.5416 9.07626 11.3516 8.89513 11.3403 8.88035C11.3254 8.86926 10.7977 7.81945 10.1653 6.54785C9.53285 5.27625 8.98649 4.20796 8.95281 4.1673C8.81435 4.00835 8.45135 3.94921 8.21933 4.04901Z" fill="white"/>
      <path d="M33.6698 2.0582C33.5994 2.08893 33.5069 2.15478 33.4673 2.19867C33.4277 2.24696 32.7849 3.51555 32.0408 5.02557C31.2968 6.5356 30.676 7.78224 30.6584 7.7998C30.6452 7.81297 29.2452 8.02806 27.5502 8.27388C25.3533 8.58993 24.4287 8.73918 24.3363 8.79624C24.0413 8.96744 23.9092 9.41079 24.0677 9.71367C24.1029 9.77951 25.0187 10.6969 26.1061 11.7504C27.1892 12.8039 28.1929 13.7828 28.3338 13.9233L28.5848 14.1823L28.0565 17.255C27.5017 20.4857 27.5061 20.455 27.6822 20.7228C27.7923 20.8896 28.0829 21.0169 28.303 20.9906C28.4351 20.9774 29.2496 20.5735 31.2219 19.5376C32.7276 18.7519 33.978 18.1066 34.0044 18.1066C34.0264 18.1066 35.2724 18.7475 36.7692 19.5332C38.2661 20.3189 39.5517 20.973 39.6265 20.9862C39.8467 21.0301 40.0624 20.9686 40.2253 20.815C40.5203 20.5384 40.5291 20.6657 39.9435 17.2506L39.4152 14.1823L39.6221 13.9672C39.741 13.8487 40.7404 12.8698 41.8543 11.7943C42.9637 10.7145 43.8971 9.77951 43.9323 9.71367C44.0908 9.41079 43.9587 8.96744 43.6637 8.79185C43.5669 8.73918 42.6776 8.59432 40.4498 8.26949C38.7548 8.02806 37.3548 7.81297 37.3416 7.79541C37.324 7.78224 36.7032 6.5356 35.9592 5.02557C35.2151 3.51555 34.5723 2.24696 34.5327 2.19867C34.3698 2.00992 33.9428 1.93968 33.6698 2.0582Z" fill="white"/>
      <path d="M61.6368 1.06433C61.5593 1.09829 61.4576 1.17106 61.414 1.21958C61.3704 1.27295 60.6634 2.67508 59.8449 4.34406C59.0265 6.01303 58.3436 7.3909 58.3243 7.41031C58.3097 7.42486 56.7697 7.66259 54.9052 7.93429C52.4886 8.28361 51.4716 8.44856 51.3699 8.51163C51.0454 8.70085 50.9001 9.19087 51.0745 9.52563C51.1132 9.59841 52.1205 10.6124 53.3167 11.7768C54.5081 12.9412 55.6122 14.0231 55.7672 14.1784L56.0433 14.4646L55.4621 17.8608C54.8519 21.4316 54.8568 21.3977 55.0505 21.6936C55.1715 21.878 55.4912 22.0187 55.7333 21.9896C55.8786 21.975 56.7745 21.5286 58.9441 20.3837C60.6004 19.5152 61.9758 18.802 62.0048 18.802C62.0291 18.802 63.3996 19.5104 65.0462 20.3788C66.6928 21.2473 68.1069 21.9701 68.1892 21.9847C68.4313 22.0332 68.6686 21.9653 68.8478 21.7955C69.1723 21.4898 69.182 21.6305 68.5379 17.8559L67.9567 14.4646L68.1844 14.2269C68.3151 14.0959 69.4144 13.014 70.6397 11.8253C71.8601 10.6318 72.8868 9.59841 72.9255 9.52563C73.0999 9.19087 72.9546 8.70085 72.6301 8.50678C72.5236 8.44856 71.5453 8.28846 69.0948 7.92943C67.2303 7.66259 65.6903 7.42486 65.6757 7.40545C65.6564 7.3909 64.9735 6.01303 64.1551 4.34406C63.3366 2.67508 62.6296 1.27295 62.586 1.21958C62.4068 1.01096 61.937 0.933334 61.6368 1.06433Z" fill="white"/>
      <path d="M91.1203 1.06739C91.0393 1.10297 90.9329 1.17921 90.8874 1.23004C90.8418 1.28595 90.1026 2.75485 89.247 4.5033C88.3913 6.25174 87.6774 7.69523 87.6572 7.71556C87.642 7.73081 86.0319 7.97986 84.0827 8.26449C81.5562 8.63044 80.493 8.80326 80.3867 8.86933C80.0475 9.06756 79.8956 9.58091 80.0778 9.93161C80.1184 10.0079 81.1715 11.0701 82.422 12.29C83.6675 13.5098 84.8219 14.6433 84.9839 14.8059L85.2725 15.1058L84.6649 18.6637C84.027 22.4045 84.0321 22.369 84.2346 22.679C84.3612 22.8722 84.6953 23.0196 84.9485 22.9891C85.1004 22.9738 86.037 22.5062 88.3052 21.3067C90.0368 20.3969 91.4747 19.6497 91.5051 19.6497C91.5304 19.6497 92.9632 20.3918 94.6846 21.3016C96.4061 22.2114 97.8845 22.9687 97.9705 22.984C98.2237 23.0348 98.4718 22.9636 98.6591 22.7858C98.9983 22.4655 99.0084 22.6129 98.3351 18.6586L97.7275 15.1058L97.9655 14.8567C98.1022 14.7195 99.2515 13.5861 100.532 12.3408C101.808 11.0905 102.882 10.0079 102.922 9.93161C103.104 9.58091 102.953 9.06756 102.613 8.86425C102.502 8.80326 101.479 8.63553 98.9173 8.25941C96.9681 7.97986 95.358 7.73081 95.3428 7.71048C95.3226 7.69523 94.6087 6.25174 93.753 4.5033C92.8974 2.75485 92.1582 1.28595 92.1126 1.23004C91.9253 1.01148 91.4342 0.930161 91.1203 1.06739Z" fill="white"/>
      <path d="M121.604 0.0704556C121.519 0.107651 121.408 0.187357 121.361 0.240496C121.313 0.298946 120.542 1.83461 119.649 3.66254C118.756 5.49046 118.011 6.99956 117.99 7.02081C117.974 7.03675 116.294 7.29713 114.26 7.59469C111.624 7.97728 110.514 8.15795 110.404 8.22703C110.05 8.43426 109.891 8.97095 110.081 9.3376C110.123 9.4173 111.222 10.5279 112.527 11.8032C113.827 13.0785 115.032 14.2634 115.201 14.4335L115.502 14.747L114.868 18.4666C114.202 22.3775 114.207 22.3403 114.419 22.6644C114.551 22.8663 114.899 23.0204 115.164 22.9886C115.322 22.9726 116.299 22.4838 118.666 21.2297C120.473 20.2786 121.974 19.4974 122.005 19.4974C122.032 19.4974 123.527 20.2732 125.323 21.2244C127.119 22.1756 128.662 22.9673 128.752 22.9832C129.016 23.0364 129.275 22.962 129.47 22.776C129.824 22.4412 129.835 22.5953 129.132 18.4613L128.498 14.747L128.747 14.4866C128.889 14.3431 130.088 13.1582 131.425 11.8563C132.756 10.5491 133.877 9.4173 133.919 9.3376C134.109 8.97095 133.95 8.43426 133.596 8.22171C133.48 8.15795 132.413 7.9826 129.74 7.58938C127.706 7.29713 126.026 7.03675 126.01 7.0155C125.989 6.99956 125.244 5.49046 124.351 3.66254C123.458 1.83461 122.687 0.298946 122.639 0.240496C122.444 0.0120049 121.931 -0.0730152 121.604 0.0704556Z" fill="white"/>
    </symbol>
  </defs>
</svg>
